<svg xmlns="http://www.w3.org/2000/svg" width="512" height="512" viewBox="0 0 512 512" role="img" aria-label="iPadをやりたい">
  <defs><filter id="shadow" x="-20%" y="-20%" width="150%" height="160%"><feDropShadow dx="0" dy="10" stdDeviation="10" flood-color="#3f5664" flood-opacity=".2"/></filter></defs>
  <g filter="url(#shadow)">
    <circle cx="158" cy="132" r="55" fill="#f1c3a0"/>
    <path d="M106 134c-4-60 26-95 68-95 46 0 73 40 55 101-16-31-50-52-100-26z" fill="#40332e"/>
    <path d="M113 207q49-25 98 0l15 132H98z" fill="#79a9c5" stroke="#557f95" stroke-width="8"/>
    <path d="M116 239h92M112 278h101" stroke="#fff" stroke-width="13"/>
    <rect x="226" y="182" width="237" height="167" rx="24" fill="#bfe1e8" stroke="#679aa8" stroke-width="10"/>
    <rect x="245" y="201" width="199" height="129" rx="12" fill="#1b2635"/>
    <g fill="#f6d365"><rect x="266" y="222" width="32" height="32" rx="8"/><rect x="313" y="222" width="32" height="32" rx="8" fill="#75cb9a"/><rect x="360" y="222" width="32" height="32" rx="8" fill="#73a9e9"/><rect x="407" y="222" width="18" height="32" rx="7" fill="#e98391"/></g>
    <path d="M194 244q54 19 94 65" fill="none" stroke="#f1c3a0" stroke-width="27" stroke-linecap="round"/>
    <circle cx="286" cy="307" r="16" fill="#f1c3a0"/>
    <path d="M148 157q15 17 31 0" fill="none" stroke="#99584b" stroke-width="7" stroke-linecap="round"/>
    <path d="M381 102c16-36 67-32 76 4 8 35-36 62-76 91-40-29-84-56-76-91 9-36 60-40 76-4z" fill="#f19b75"/>
  </g>
</svg>
